<?xml version="1.0" standalone="no"?>
<!DOCTYPE svg PUBLIC "-//W3C//DTD SVG 20010904//EN"
 "http://www.w3.org/TR/2001/REC-SVG-20010904/DTD/svg10.dtd">
<svg version="1.0" xmlns="http://www.w3.org/2000/svg"
 width="1380.000000pt" height="1380.000000pt" viewBox="0 0 1380.000000 1380.000000"
 preserveAspectRatio="xMidYMid meet">

<g transform="translate(0.000000,1380.000000) scale(0.100000,-0.100000)"
fill="#000000" stroke="none">
<path d="M5897 12460 c-259 -107 -482 -266 -626 -445 -33 -42 -61 -70 -61 -62
0 8 11 52 24 98 14 46 23 85 21 87 -9 9 -121 -189 -212 -372 l-104 -211 3 132
c2 72 0 129 -3 127 -14 -8 -100 -219 -128 -312 -16 -54 -37 -145 -46 -203 -9
-57 -20 -122 -24 -144 l-8 -40 -28 60 c-16 33 -41 96 -56 140 l-27 80 -7 -38
c-4 -21 -5 -114 -2 -205 4 -132 12 -200 36 -326 18 -87 30 -160 28 -162 -2 -2
-23 45 -46 104 -49 120 -174 383 -215 452 l-28 45 6 -35 c3 -19 8 -57 11 -85
l6 -50 -36 40 c-19 22 -72 93 -116 157 -103 151 -179 245 -274 338 l-77 75 52
-100 c29 -55 58 -109 65 -120 6 -11 15 -28 18 -38 6 -17 4 -17 -20 2 -297 227
-560 354 -869 416 -136 28 -387 48 -471 39 l-54 -7 92 -24 c138 -36 345 -116
509 -196 l145 -72 -135 -7 c-149 -8 -286 -38 -385 -83 l-60 -28 55 -7 c30 -5
102 -13 160 -20 301 -33 615 -140 840 -286 37 -24 47 -34 30 -30 -92 19 -223
26 -410 24 l-215 -3 80 -29 c413 -150 506 -186 615 -237 130 -62 284 -148 277
-155 -2 -3 -37 3 -78 11 -90 20 -271 45 -319 45 l-35 -1 56 -32 c31 -18 145
-77 252 -131 108 -55 195 -101 193 -103 -2 -2 -34 3 -72 11 -180 37 -302 50
-494 50 -156 1 -211 -3 -275 -17 -44 -11 -84 -24 -90 -29 -7 -8 -4 -9 8 -5 10
4 89 11 175 17 241 15 459 -5 644 -60 72 -22 178 -65 178 -73 0 -2 -26 2 -57
9 -104 25 -114 17 -32 -24 81 -41 195 -118 220 -148 13 -18 13 -18 -11 -3
-195 122 -348 183 -577 230 -126 26 -455 37 -599 20 -375 -44 -761 -195 -1054
-412 -86 -63 -209 -180 -229 -217 -13 -24 -11 -23 397 109 134 43 249 79 255
79 7 0 -13 -14 -43 -31 -59 -34 -167 -118 -214 -168 -31 -32 -25 -41 9 -17 43
29 205 115 305 161 108 49 333 133 315 117 -5 -4 -47 -35 -93 -67 -87 -62
-213 -187 -295 -293 -27 -34 -46 -62 -44 -62 2 0 60 37 128 83 68 45 167 108
219 139 53 31 139 86 191 121 l95 63 -52 -83 c-71 -113 -151 -340 -112 -317
110 65 209 143 302 238 60 61 105 102 102 91 -23 -65 -47 -168 -52 -222 l-7
-64 74 27 c107 39 170 83 291 205 104 106 107 108 88 64 -23 -54 -43 -166 -32
-177 18 -18 139 30 190 76 32 28 27 10 -14 -52 -1 -2 -53 -15 -116 -28 -375
-81 -732 -253 -1090 -526 -168 -128 -327 -279 -412 -389 -46 -60 -108 -159
-100 -159 3 0 63 42 133 93 103 76 351 247 410 282 16 9 13 3 -29 -60 -25 -37
-90 -159 -90 -169 0 -2 42 37 93 88 50 50 124 117 162 147 84 67 205 153 205
146 0 -3 -17 -36 -39 -74 -35 -63 -79 -164 -96 -223 -5 -15 12 0 42 40 97 126
317 334 404 381 l22 11 -22 -31 c-28 -39 -108 -207 -116 -246 -6 -26 10 -14
111 86 158 154 287 273 323 299 27 19 25 12 -25 -67 -31 -48 -67 -110 -81
-138 -25 -49 -25 -49 74 51 90 90 226 204 245 204 4 0 -2 -21 -12 -46 -11 -25
-17 -44 -13 -42 5 2 31 15 58 29 90 47 102 42 18 -9 -521 -315 -933 -959
-1077 -1682 -28 -138 -49 -354 -44 -440 l3 -55 54 150 c46 131 192 477 198
471 1 -1 7 -40 12 -86 5 -47 15 -110 22 -140 l12 -55 37 177 c20 98 57 251 81
340 l44 163 6 -130 c10 -212 20 -345 27 -345 4 0 36 118 70 263 73 298 80 322
81 258 2 -96 50 -334 51 -251 0 42 47 253 95 428 24 92 51 196 59 232 l14 65
1 -85 c2 -129 21 -448 30 -489 7 -32 13 -15 53 154 26 105 50 208 55 230 9 37
10 34 17 -50 4 -49 12 -117 18 -150 l12 -60 17 115 c18 127 73 378 84 388 4 4
5 -6 2 -23 -4 -16 -9 -82 -12 -145 l-6 -115 59 145 c32 80 70 170 84 200 24
54 106 190 114 190 2 0 -13 -37 -33 -82 -151 -349 -192 -654 -138 -1043 40
-290 115 -531 256 -820 35 -71 65 -133 67 -137 2 -4 -30 4 -70 18 -155 53
-228 67 -343 67 -94 0 -122 -4 -190 -27 -189 -65 -358 -187 -614 -446 -154
-155 -177 -175 -144 -125 54 80 193 235 277 309 37 32 65 61 62 63 -2 3 -51
-19 -108 -47 -57 -29 -98 -48 -93 -43 6 6 50 41 100 79 100 77 263 229 255
238 -10 9 -209 -92 -292 -149 l-81 -56 61 68 c71 81 288 293 352 346 52 43 41
40 -91 -21 -47 -21 -104 -56 -126 -76 -124 -111 9 48 193 231 135 134 132 139
-28 48 -43 -24 -78 -42 -78 -40 0 12 135 161 219 244 101 99 97 101 -38 19
-394 -241 -672 -603 -806 -1053 l-36 -120 5 115 c6 131 31 271 81 455 41 148
41 154 16 131 -11 -10 -28 -15 -38 -12 -20 6 -40 -17 -85 -98 -15 -28 -28 -46
-28 -40 0 7 9 79 19 160 22 167 30 254 24 254 -2 0 -21 -28 -43 -62 l-40 -63
0 78 c0 43 -7 140 -16 215 -16 133 -15 323 1 367 17 47 -37 -34 -80 -120 -67
-135 -103 -302 -105 -495 -1 -56 -3 -61 -12 -40 -6 14 -21 68 -33 120 l-22 95
-8 -80 c-15 -150 7 -348 54 -489 10 -31 17 -56 16 -56 -1 0 -27 33 -58 73 -93
121 -102 125 -66 26 43 -118 112 -293 142 -362 l26 -58 -97 90 c-88 82 -262
221 -276 221 -3 0 8 -23 24 -50 17 -28 30 -53 30 -56 0 -3 -42 18 -94 46 -101
54 -229 110 -253 110 -10 0 -5 -12 16 -35 17 -20 31 -37 31 -40 0 -2 -26 7
-58 19 -124 49 -197 61 -367 61 -136 0 -174 -4 -250 -24 -49 -12 -93 -26 -97
-30 -4 -3 32 -7 79 -8 130 -3 342 -49 498 -107 39 -14 39 -15 10 -15 -96 -3
-281 -25 -353 -41 -124 -29 -135 -42 -32 -36 165 12 395 19 389 12 -3 -3 -43
-13 -90 -21 -111 -21 -242 -55 -254 -67 -6 -6 27 -8 90 -4 197 11 490 15 460
6 -16 -5 -70 -18 -120 -31 -49 -12 -96 -25 -103 -29 -8 -4 62 -10 155 -13 171
-7 315 -23 343 -38 9 -5 -9 -9 -50 -9 -129 -1 -350 -34 -334 -50 15 -15 169
-38 334 -50 193 -15 250 -27 135 -30 -44 -1 -107 -5 -140 -9 l-60 -6 90 -14
c133 -20 317 -59 326 -68 4 -4 -49 -8 -119 -8 -133 0 -262 -12 -262 -24 0 -3
47 -12 105 -19 138 -17 274 -52 370 -96 43 -20 76 -38 74 -41 -3 -2 -34 5 -70
16 -102 33 -304 37 -439 9 -386 -79 -843 -379 -1047 -686 -20 -30 -34 -56 -31
-59 2 -2 28 11 56 31 70 46 281 174 289 174 4 0 -4 -12 -18 -27 -36 -40 -111
-143 -104 -143 13 0 264 169 320 216 84 70 90 72 59 23 -26 -42 -80 -154 -110
-229 -10 -27 23 2 153 135 91 94 162 161 158 150 -4 -11 -26 -76 -50 -145
l-44 -125 101 105 c55 58 123 135 150 173 28 37 52 67 53 67 2 0 -3 -21 -11
-46 -19 -62 -44 -187 -39 -192 9 -9 150 136 208 213 33 44 58 71 55 60 -3 -11
-16 -57 -28 -103 l-23 -83 -66 -46 c-283 -200 -448 -404 -602 -743 -31 -69
-60 -136 -64 -150 -4 -14 42 45 102 130 137 195 156 221 160 216 3 -3 -5 -49
-23 -136 -8 -38 7 -18 82 105 37 61 64 99 60 85 -3 -14 -8 -50 -11 -80 l-6
-55 47 90 c26 50 62 124 81 165 32 74 33 75 33 35 -1 -22 -5 -71 -10 -110 -5
-38 -7 -71 -6 -73 4 -3 72 111 121 203 20 39 38 72 41 74 2 2 1 -21 -2 -50
l-4 -54 19 43 c22 45 36 56 26 20 -6 -23 -6 -23 10 -3 55 68 114 160 120 185
4 16 11 33 17 36 7 4 8 -4 3 -25 -10 -45 3 -38 26 14 23 52 39 65 39 33 1 -20
6 -17 43 25 23 26 45 47 49 47 4 0 -12 -28 -36 -62 -234 -338 -344 -749 -307
-1151 12 -131 56 -401 68 -421 4 -6 15 61 25 149 10 88 23 192 30 230 l12 70
7 -50 c21 -139 33 -196 39 -183 4 7 15 99 24 203 9 105 20 215 23 245 l6 55
23 -113 c12 -62 24 -116 27 -118 17 -17 28 459 13 522 -14 54 11 11 54 -96 23
-58 51 -121 61 -140 l19 -35 -5 100 c-3 55 -8 135 -11 178 -3 42 -3 77 -1 77
3 0 25 -38 48 -85 24 -47 46 -85 49 -85 3 0 4 89 3 197 l-2 198 39 -150 c51
-192 81 -277 141 -397 123 -245 279 -450 469 -616 113 -99 134 -109 85 -41
-115 160 -178 253 -220 324 l-47 80 84 -80 c45 -44 98 -94 117 -110 l34 -30
-24 45 c-13 24 -70 114 -127 198 l-103 154 63 -48 c35 -27 84 -68 111 -93 26
-24 47 -40 47 -36 0 14 -147 230 -214 314 -90 113 -101 136 -34 75 31 -28 75
-66 99 -84 38 -31 41 -32 29 -9 -29 54 -160 246 -184 268 -41 38 -31 46 21 16
l46 -28 -24 34 c-13 19 -53 70 -89 114 l-65 80 44 -32 c25 -18 46 -31 49 -29
2 3 -15 36 -37 74 -45 78 -47 84 -26 76 16 -7 12 13 -24 105 -11 30 -19 56
-17 58 5 6 67 -99 114 -192 48 -97 104 -193 252 -435 366 -598 531 -899 720
-1315 205 -453 363 -899 475 -1343 38 -152 105 -481 105 -515 0 -6 -33 37 -72
96 -81 118 -221 293 -225 280 -2 -5 28 -102 66 -216 38 -114 68 -207 66 -207
-2 0 -37 25 -77 55 -67 51 -299 174 -358 190 -21 6 -18 2 15 -26 57 -47 243
-229 265 -259 l18 -25 -117 0 c-143 0 -199 -17 -415 -123 l-151 -75 -210 -3
c-469 -6 -891 -93 -1225 -252 l-75 -36 215 -7 c243 -7 4798 -7 7420 1 1697 5
1734 5 1695 23 -173 80 -535 196 -806 257 -296 67 -507 93 -738 89 l-166 -3
-65 33 c-36 19 -90 42 -120 51 -30 9 -110 41 -177 71 l-122 53 32 14 c18 8 77
29 132 48 l100 34 -175 -4 c-97 -2 -203 -11 -237 -18 -40 -9 -60 -11 -56 -4
37 61 226 288 276 332 35 30 38 35 17 29 -91 -27 -294 -151 -417 -255 -40 -33
-73 -56 -73 -50 0 26 43 213 69 303 17 55 24 93 17 88 -22 -19 -127 -169 -172
-248 -49 -85 -48 -88 -23 57 54 325 263 885 544 1455 193 392 346 658 655
1140 208 325 283 450 377 629 75 144 78 144 36 -3 -42 -149 -104 -275 -200
-410 l-17 -23 41 21 c23 11 71 43 108 71 l66 50 -28 -50 c-15 -28 -69 -106
-118 -173 -200 -270 -199 -266 -22 -118 59 50 107 87 107 83 0 -12 -124 -165
-195 -241 -37 -39 -64 -71 -60 -71 4 0 49 29 101 65 52 37 94 63 94 59 0 -3
-47 -67 -105 -140 -58 -74 -102 -134 -98 -134 5 0 51 39 103 88 52 48 88 76
79 62 -9 -14 -46 -70 -81 -125 -85 -130 -132 -215 -120 -215 18 0 269 248 326
323 125 163 205 332 229 485 6 39 14 72 17 72 4 0 11 -12 17 -27 9 -22 11 -3
8 92 -3 88 -2 108 5 75 5 -25 9 -100 9 -167 1 -127 14 -162 26 -70 13 94 20
74 30 -88 l10 -160 42 126 c24 70 50 173 60 230 9 56 18 99 19 93 2 -5 8 -101
14 -213 6 -112 14 -211 19 -219 5 -9 14 27 25 95 10 59 20 124 23 143 l6 35 8
-30 c11 -38 27 -204 36 -360 7 -134 13 -128 38 39 l14 91 -4 -155 -4 -155 20
55 c10 30 26 84 34 120 l15 65 -5 -145 -4 -145 26 75 c32 90 40 72 19 -43 -9
-46 -16 -106 -16 -133 l0 -49 19 25 c19 24 19 24 6 -40 -7 -36 -12 -66 -10
-68 8 -9 57 91 84 173 54 160 62 331 26 535 -46 262 -142 502 -281 705 -36 53
-63 99 -61 101 7 7 93 -92 155 -178 31 -43 57 -76 59 -74 4 3 -28 93 -52 151
-22 52 -18 48 56 -65 68 -105 149 -213 155 -208 2 2 -8 39 -22 82 -13 43 -23
80 -21 82 2 2 22 -31 45 -74 22 -42 57 -102 77 -132 40 -62 40 -60 -5 103 -15
53 -26 97 -24 97 2 0 44 -81 95 -181 50 -99 93 -179 95 -177 2 2 -1 34 -7 72
-6 37 -9 70 -6 72 4 4 106 -165 151 -251 19 -37 20 -18 2 60 -14 59 -14 60 5
35 10 -14 68 -92 128 -175 60 -82 117 -159 125 -170 26 -34 -53 153 -120 285
-166 327 -381 562 -648 710 -85 46 -105 65 -81 74 21 8 50 -8 101 -55 23 -20
57 -45 75 -55 19 -9 45 -25 58 -35 47 -37 68 -11 35 41 -8 14 0 7 18 -15 42
-53 180 -186 186 -181 2 3 -19 49 -47 103 l-52 98 83 -86 c76 -78 148 -139
148 -124 0 3 -19 42 -41 88 l-42 82 65 -57 c68 -60 205 -158 221 -158 5 0 -20
35 -55 78 -35 42 -70 85 -77 95 -8 10 29 -10 82 -45 97 -64 284 -180 302 -187
5 -2 -15 25 -45 60 -29 35 -61 72 -69 83 -10 11 7 4 39 -16 30 -19 107 -63
170 -98 63 -35 127 -72 143 -82 15 -11 27 -15 27 -11 0 18 -171 223 -256 307
-104 102 -197 176 -311 244 -98 59 -171 90 -328 138 -108 33 -118 37 -100 50
18 13 18 15 -5 40 -35 36 -134 81 -211 94 -36 6 -107 10 -157 8 -140 -5 -125
3 98 50 l45 10 -68 1 c-83 1 -80 16 5 25 35 4 128 19 208 35 159 30 161 40 5
42 l-90 2 88 10 c82 9 119 26 60 28 -16 0 31 11 102 24 195 35 203 37 178 46
-12 4 -68 13 -124 19 -57 6 -115 14 -129 17 -38 10 34 19 250 33 102 6 201 14
220 17 34 6 33 6 -25 19 -33 7 -100 18 -148 25 -48 6 -85 14 -83 17 3 2 101 7
218 11 208 6 211 7 148 19 -36 7 -120 15 -188 19 -68 3 -119 10 -115 14 4 4
55 24 113 43 110 37 254 66 325 66 23 0 64 3 90 7 l49 6 -79 23 c-208 62 -462
48 -637 -35 -32 -15 -58 -26 -58 -23 0 2 14 22 31 44 17 21 29 42 25 45 -11
11 -168 -74 -261 -141 -49 -36 -91 -64 -92 -62 -2 2 8 34 21 72 14 37 24 70
22 72 -7 7 -140 -147 -199 -230 -33 -48 -62 -86 -64 -84 -4 4 41 153 61 200 9
22 15 40 13 42 -1 2 -46 -52 -100 -120 -102 -128 -186 -217 -172 -181 41 106
84 247 84 275 0 31 -1 33 -12 16 -7 -11 -24 -33 -39 -50 l-28 -31 25 61 c30
77 69 223 61 232 -4 3 -24 -12 -46 -33 l-39 -38 5 124 c2 76 1 116 -4 104 -8
-16 -12 -8 -21 40 -29 141 -71 246 -144 362 -28 46 -54 83 -58 83 -3 0 -2 -23
2 -51 20 -124 29 -288 23 -404 -4 -69 -10 -125 -13 -125 -3 1 -31 40 -61 87
-64 100 -194 242 -289 314 -70 53 -266 155 -316 164 -26 5 -10 -13 101 -122
72 -70 146 -145 163 -165 l32 -36 -78 44 c-43 24 -81 44 -86 44 -4 0 46 -53
111 -117 112 -112 191 -203 177 -203 -3 0 -21 11 -39 25 -34 26 -225 120 -231
113 -2 -2 40 -48 93 -103 53 -55 141 -147 197 -204 l100 -104 -56 32 c-31 17
-101 51 -155 77 l-99 45 45 -46 c25 -26 90 -85 145 -133 132 -113 137 -118
107 -102 -31 15 -134 51 -138 47 -2 -2 23 -22 55 -46 32 -23 69 -54 82 -68
l24 -26 -25 15 c-47 29 -180 98 -187 98 -5 0 8 -15 28 -33 20 -17 69 -67 110
-111 l74 -78 -65 32 c-35 18 -60 26 -54 19 6 -8 35 -44 65 -81 30 -36 65 -85
78 -108 l24 -42 -77 61 c-140 111 -296 189 -508 255 -62 20 -152 42 -200 51
-204 37 -466 35 -634 -5 -48 -11 -89 -18 -91 -16 -5 5 41 242 64 331 9 33 24
68 35 77 14 13 17 22 10 34 -12 22 -5 57 137 624 152 606 164 659 256 1150 15
80 49 251 76 380 l48 235 0 -83 c1 -95 -13 -237 -33 -332 -8 -36 -13 -66 -11
-68 2 -2 38 33 81 78 43 45 80 77 82 72 5 -16 -97 -289 -154 -409 l-52 -112
59 49 c88 74 266 190 243 160 -6 -8 -34 -44 -61 -80 -40 -51 -246 -359 -288
-430 -11 -19 -10 -18 140 105 150 123 155 127 119 80 -87 -112 -264 -388 -264
-411 0 -3 48 43 106 103 l105 108 -49 -75 c-79 -120 -184 -292 -180 -295 2 -2
37 28 78 66 41 38 110 101 152 140 l78 71 -110 -229 c-61 -125 -141 -290 -179
-366 -54 -107 -64 -134 -44 -115 56 52 188 218 260 329 42 65 79 116 81 114
10 -10 -96 -204 -184 -337 -53 -79 -98 -147 -102 -153 -15 -24 81 61 141 125
37 39 67 68 67 65 0 -2 -32 -73 -71 -157 -87 -189 -187 -381 -245 -471 -24
-37 -44 -71 -44 -74 0 -9 124 126 210 228 233 276 415 608 499 909 61 221 80
519 47 738 -15 100 -68 350 -81 385 -13 34 5 16 21 -20 l17 -38 7 33 c13 57
20 48 20 -24 0 -63 25 -252 35 -262 2 -2 14 17 28 43 l24 48 6 -129 c4 -71 13
-160 22 -198 16 -73 56 -186 66 -186 3 0 2 26 -3 58 -11 63 -1 239 13 248 5 3
9 -7 9 -21 0 -74 91 -418 119 -447 4 -4 5 37 3 91 -4 90 17 314 36 384 5 19
23 -66 61 -290 29 -174 56 -326 60 -337 5 -12 14 31 26 120 l18 139 42 -170
c23 -93 59 -222 81 -285 l39 -115 3 50 c2 28 -1 145 -7 260 -6 116 -11 239
-10 275 l1 65 14 -45 c8 -25 30 -117 49 -205 55 -248 138 -575 147 -575 4 0 8
69 8 153 l0 152 30 -50 c72 -121 159 -360 205 -561 38 -168 40 -171 54 -92 46
266 40 519 -19 791 -67 305 -244 689 -445 962 -141 193 -337 394 -482 498 -73
53 -104 87 -37 42 20 -14 40 -25 45 -25 5 0 -7 37 -27 81 -19 45 -33 83 -31
85 2 2 29 -34 60 -79 56 -83 176 -222 184 -214 2 3 -12 60 -31 128 -19 68 -33
125 -32 127 4 3 300 -327 410 -457 48 -59 92 -110 97 -115 4 -5 -5 24 -21 65
-34 90 -112 404 -96 388 3 -3 74 -131 157 -285 83 -153 148 -270 145 -259 -2
11 -16 77 -31 148 -14 70 -32 148 -40 172 -7 25 -11 45 -8 45 11 0 225 -268
300 -375 31 -44 53 -71 49 -61 -26 76 -77 258 -74 262 7 6 280 -276 343 -353
27 -34 51 -61 52 -59 2 2 -17 51 -41 110 l-45 106 137 -124 c158 -143 315
-276 321 -270 7 7 -108 200 -167 279 -305 409 -798 751 -1339 929 -107 36
-114 40 -148 86 -45 61 -44 69 3 32 42 -33 96 -63 163 -91 l46 -19 -60 115
c-32 63 -57 117 -54 119 9 10 120 -98 201 -194 70 -83 145 -152 166 -152 4 0
-3 37 -16 82 -13 45 -24 83 -24 85 0 2 24 -16 54 -41 73 -59 151 -112 140 -95
-4 8 -20 32 -35 54 -30 44 -131 256 -126 262 2 2 82 -71 178 -163 96 -91 209
-197 251 -236 l76 -69 -72 158 c-40 87 -86 183 -101 213 l-27 54 38 -34 c22
-18 80 -70 129 -116 128 -117 279 -244 283 -239 9 9 -183 357 -231 418 -16 21
-28 40 -25 42 2 2 35 -19 73 -48 76 -56 422 -289 456 -308 17 -9 20 -8 13 3
-20 33 -133 178 -173 221 -24 26 -41 47 -38 47 3 0 34 -9 70 -20 179 -56 642
-190 673 -196 34 -6 35 -5 26 13 -19 35 -186 186 -277 251 -282 199 -661 350
-1005 398 -146 21 -477 15 -620 -11 -151 -27 -382 -89 -555 -149 -175 -60
-178 -50 -10 33 211 104 392 158 643 191 86 12 168 25 182 30 23 8 22 8 -11 9
-76 2 -250 -21 -419 -55 -159 -32 -363 -56 -349 -41 3 4 64 13 136 22 72 8
137 17 145 19 7 3 54 17 103 32 76 22 86 28 67 35 -22 8 -193 27 -297 32 l-50
2 71 18 c39 9 138 39 220 66 83 26 183 56 222 66 40 10 72 22 72 25 0 10 -135
20 -279 20 l-126 1 91 33 c51 18 199 85 330 149 132 64 268 127 304 141 l65
25 -100 1 c-174 2 -240 -1 -306 -15 -35 -7 -66 -11 -68 -10 -7 8 150 101 254
151 205 99 406 153 650 176 l128 11 -49 19 c-181 71 -363 94 -529 65 -49 -9
-91 -15 -92 -13 -2 1 68 37 154 78 233 112 402 175 590 221 51 12 93 25 93 29
0 11 -210 21 -303 14 -304 -21 -633 -151 -930 -368 -80 -58 -80 -55 -11 85 25
48 41 87 36 87 -14 0 -121 -95 -175 -155 -64 -73 -157 -194 -222 -293 -26 -40
-50 -70 -52 -68 -4 4 139 321 199 441 l30 60 -38 -35 c-22 -19 -83 -77 -137
-130 l-99 -95 70 140 c38 77 109 239 157 360 123 309 194 445 287 550 16 19
26 35 21 35 -20 0 -203 -162 -315 -278 -263 -274 -426 -544 -499 -827 -26
-101 -28 -106 -28 -60 0 60 24 272 35 300 18 49 -16 -7 -51 -85 -87 -195 -153
-444 -206 -775 -12 -77 -25 -149 -29 -159 -8 -23 -47 302 -55 469 -4 66 -13
163 -21 215 -16 107 -62 307 -75 330 -5 9 -6 -65 -2 -170 3 -102 3 -183 0
-180 -3 3 -22 50 -42 105 -46 122 -117 275 -175 375 -61 105 -142 232 -146
227 -3 -3 19 -106 32 -152 4 -11 -17 11 -46 49 -127 166 -295 302 -508 410
-116 58 -320 142 -328 134 -1 -2 43 -53 98 -113 93 -101 337 -383 388 -447
l21 -28 -68 31 c-63 28 -257 99 -271 99 -4 0 34 -26 83 -58 98 -63 219 -159
333 -261 81 -73 182 -187 142 -159 -109 76 -250 137 -373 162 -125 26 -129 21
-34 -36 235 -140 438 -355 606 -643 39 -66 73 -129 77 -140 4 -11 -40 41 -98
115 -275 353 -564 537 -982 626 -176 38 -443 44 -611 16 -113 -20 -271 -62
-360 -95 l-40 -16 90 0 c107 -1 329 -24 440 -46 93 -17 265 -67 265 -76 0 -3
-26 -9 -59 -12 -73 -8 -202 -48 -298 -94 -96 -45 -235 -124 -229 -130 2 -2 22
0 43 6 244 66 618 97 811 67 137 -21 153 -31 60 -39 -97 -8 -213 -43 -373
-111 l-130 -55 190 -1 c219 0 374 -12 530 -40 100 -18 271 -63 283 -75 3 -2
-31 -2 -74 1 -140 11 -389 -21 -559 -72 l-60 -18 50 -7 c28 -5 140 -22 250
-38 110 -17 265 -38 345 -46 80 -9 156 -19 169 -23 13 -4 -61 -8 -165 -9 -131
0 -213 -6 -268 -17 -43 -8 -81 -18 -84 -21 -6 -6 -1 -8 173 -45 83 -17 227
-50 320 -73 l170 -42 -160 -5 -160 -5 40 -18 c22 -10 75 -34 118 -54 88 -39
175 -87 241 -132 64 -44 67 -57 5 -20 -186 109 -379 185 -573 224 -418 84
-826 34 -1193 -145 l-118 -58 -81 49 c-363 218 -696 304 -1054 270 -246 -24
-486 -84 -724 -181 -55 -22 -101 -38 -103 -36 -9 8 124 81 278 151 89 41 164
77 167 80 7 7 -90 5 -161 -4 -31 -4 -54 -4 -50 0 12 12 265 74 383 95 101 18
103 18 72 31 -39 16 -316 73 -357 73 -22 1 -26 3 -15 9 29 17 457 34 585 24
66 -6 121 -10 122 -9 2 1 -34 24 -79 51 -86 51 -248 125 -360 166 -38 13 -68
27 -68 30 0 9 178 19 345 19 138 0 307 -12 380 -25 25 -5 22 -1 -25 29 -138
89 -323 169 -425 183 -89 12 -27 23 161 30 209 6 353 -4 579 -42 77 -13 141
-22 143 -21 1 2 -46 26 -105 54 -130 60 -257 104 -377 128 l-88 17 33 14 c111
47 312 96 544 134 l140 23 -75 17 c-41 10 -124 25 -185 33 -378 53 -667 12
-973 -136 -362 -176 -659 -471 -902 -896 -35 -63 -66 -109 -68 -104 -4 14 91
223 140 307 45 77 71 114 133 190 72 89 74 92 35 65 -19 -14 -59 -44 -87 -67
-29 -24 -56 -43 -59 -43 -11 0 68 83 140 148 39 34 110 91 158 124 48 34 86
63 84 65 -6 6 -216 -68 -291 -102 -41 -18 -75 -32 -75 -29 0 8 116 114 177
161 80 63 233 163 326 213 43 23 76 44 74 46 -7 8 -268 -63 -372 -100 l-100
-36 50 46 c111 100 347 233 470 264 59 15 80 30 43 30 -76 0 -244 -24 -342
-50 -61 -15 -112 -27 -114 -25 -1 1 37 37 85 79 102 89 229 178 326 230 38 20
60 36 49 36 -41 0 -180 -42 -251 -75 -41 -20 -75 -34 -77 -32 -13 13 293 372
445 522 66 65 82 85 64 85 -5 0 -61 -23 -126 -50z m793 -2429 c72 -50 209
-150 268 -196 2 -2 -11 -23 -28 -49 -33 -48 -120 -214 -120 -228 0 -4 34 17
76 48 112 83 327 208 391 228 19 6 12 -11 -47 -114 -39 -67 -70 -124 -70 -126
0 -2 48 32 108 76 273 203 464 341 467 338 2 -2 -32 -51 -74 -109 -109 -148
-194 -269 -188 -269 3 0 45 30 94 67 48 37 138 99 198 138 171 112 365 234
365 230 0 -2 -16 -23 -37 -47 -71 -84 -223 -332 -223 -364 0 -3 73 65 163 152
161 156 318 296 325 290 2 -2 -34 -59 -79 -127 -86 -131 -144 -237 -135 -247
8 -7 98 56 187 130 39 33 68 54 63 47 -4 -7 -38 -57 -75 -111 -38 -54 -66 -98
-63 -98 12 0 159 106 269 193 65 53 121 95 122 93 2 -2 -20 -51 -48 -110 -28
-59 -49 -110 -46 -113 8 -8 121 63 186 117 81 66 83 67 55 5 -15 -31 -24 -59
-21 -62 3 -2 29 0 59 5 76 15 177 23 153 13 -11 -5 -81 -20 -155 -34 -389 -74
-679 -206 -945 -429 -207 -174 -381 -390 -532 -662 -93 -168 -75 -165 -142
-29 -207 418 -566 770 -1004 983 -245 119 -454 174 -852 223 -16 2 25 5 92 6
121 1 282 -16 398 -43 l60 -14 -30 23 c-16 14 -71 48 -122 77 -51 28 -91 53
-89 55 7 8 206 -66 346 -128 l155 -69 -90 90 -90 90 55 -16 c30 -9 70 -22 88
-30 17 -7 32 -10 32 -6 0 4 -36 53 -80 110 -44 56 -77 102 -73 102 17 0 115
-67 278 -190 99 -75 186 -140 194 -145 13 -7 -86 144 -181 278 -26 37 -46 67
-44 67 2 0 40 -21 83 -47 43 -25 169 -92 280 -148 201 -101 202 -101 172 -64
-17 21 -80 82 -142 135 -154 134 -163 143 -102 109 28 -15 93 -58 145 -94z
m413 4 c23 -9 22 -14 -10 -47 -25 -26 -53 -37 -53 -20 0 4 -18 31 -40 60 -22
29 -40 55 -40 57 0 4 68 -20 143 -50z m3306 -176 c1 -3 -13 -4 -29 -1 -29 4
-60 42 -60 73 0 11 87 -59 89 -72z m-1437 -416 c-242 -263 -582 -676 -568
-690 2 -2 30 14 62 35 64 43 124 75 124 68 0 -3 -16 -40 -35 -82 -45 -97 -89
-230 -106 -313 -6 -34 -17 -64 -23 -66 -304 -83 -485 -184 -682 -380 -132
-132 -197 -223 -307 -428 -107 -200 -125 -225 -86 -117 61 166 70 196 85 259
8 35 13 65 11 68 -3 2 -28 -37 -57 -87 -29 -50 -54 -89 -56 -87 -4 3 17 68 42
132 7 19 6 19 -12 4 -37 -31 -47 -33 -31 -8 21 33 43 114 66 249 11 63 44 207
73 320 l53 205 6 -130 c4 -71 7 -150 8 -175 1 -44 1 -44 17 -22 22 32 92 225
160 444 32 103 59 186 61 184 2 -2 8 -59 13 -127 10 -127 38 -314 47 -306 2 3
19 65 38 138 31 126 129 425 144 442 8 8 31 -315 31 -417 0 -33 3 -57 6 -53 3
3 73 149 156 324 143 304 178 371 164 312 -9 -40 -54 -327 -62 -394 -4 -39 -3
-56 3 -50 12 12 96 203 148 337 21 54 40 96 42 94 2 -1 -10 -54 -26 -117 -25
-99 -31 -134 -18 -118 69 82 132 181 185 291 36 76 67 136 69 134 2 -2 -9 -42
-25 -90 -15 -47 -26 -86 -23 -85 4 0 38 39 76 86 81 100 289 313 305 313 7 0
-29 -44 -78 -97z m-4154 14 c8 -9 13 -165 16 -473 11 -1055 78 -1788 261
-2884 273 -1634 551 -2605 1115 -3895 50 -115 94 -216 97 -222 7 -16 -5 -16
-97 1 -41 8 -104 17 -140 20 l-65 7 63 -59 c34 -32 62 -61 62 -65 0 -4 -12 -7
-26 -7 -48 0 -148 -31 -209 -65 -52 -29 -76 -35 -176 -45 -177 -18 -170 -26
-101 111 32 63 77 142 100 174 22 33 39 61 37 63 -5 6 -104 -50 -178 -100 -32
-22 -93 -71 -137 -109 l-79 -70 45 81 c65 118 90 157 151 233 30 37 51 67 48
67 -13 0 -155 -76 -210 -113 -33 -22 -99 -80 -148 -129 -52 -53 -89 -84 -92
-76 -2 7 -20 68 -40 134 -165 564 -520 1403 -848 2009 -135 249 -447 753 -867
1400 -124 191 -155 244 -146 252 3 3 20 -16 38 -42 18 -26 38 -54 44 -63 8
-12 10 4 6 64 -2 43 -1 76 3 72 5 -5 18 -48 31 -97 20 -81 86 -235 105 -246 4
-3 5 30 3 72 l-5 78 50 -135 c28 -74 51 -140 51 -147 0 -6 5 -15 12 -19 8 -5
10 24 5 116 -3 67 -5 121 -3 119 2 -2 17 -53 34 -114 17 -60 45 -150 64 -200
l33 -90 6 55 c4 30 8 93 9 140 2 112 10 89 51 -143 18 -103 36 -187 40 -187 4
0 10 54 14 121 4 66 11 117 15 112 4 -4 15 -73 25 -153 25 -197 29 -211 44
-135 7 33 15 74 18 90 l6 30 7 -32 c4 -18 15 -93 26 -168 10 -74 21 -132 24
-128 4 5 13 35 20 68 7 33 15 64 18 70 3 5 20 -90 37 -210 34 -243 34 -243 61
-14 46 402 -24 755 -201 1004 -61 86 -182 197 -265 243 -60 33 -77 48 -103 93
l-30 54 65 -60 c75 -71 138 -112 138 -90 0 7 -5 26 -10 41 -17 43 -5 39 23 -9
15 -24 54 -78 88 -118 52 -62 61 -69 55 -44 -19 73 -36 168 -33 172 3 2 44
-53 91 -124 94 -139 100 -139 71 -2 -9 40 -14 74 -12 76 2 2 24 -22 48 -54 78
-104 183 -226 187 -215 1 5 -6 44 -16 86 -11 42 -19 76 -17 76 2 0 34 -43 71
-96 38 -53 70 -92 72 -86 1 5 -4 40 -13 77 -8 38 -14 70 -11 72 2 2 14 -9 26
-24 12 -15 60 -67 107 -116 90 -92 92 -90 37 32 -19 40 -34 76 -34 79 0 3 50
-47 111 -112 61 -64 113 -115 115 -113 2 2 -10 36 -27 76 -17 40 -28 75 -26
78 8 7 141 -86 225 -156 39 -34 72 -58 72 -53 0 11 -76 139 -117 197 -187 262
-426 440 -725 539 -119 40 -231 61 -408 76 -104 9 -128 14 -145 31 l-20 20 28
-10 c40 -15 67 -14 67 4 0 19 13 19 51 -1 33 -16 51 -12 31 8 -22 22 -12 29
19 13 48 -26 44 -12 -12 39 -45 40 -48 46 -28 46 13 0 55 -16 94 -35 85 -42
121 -48 117 -21 -3 14 1 17 12 12 9 -3 24 -9 33 -13 15 -6 14 -1 -5 30 -12 20
-17 37 -12 37 5 0 64 -27 131 -60 67 -33 124 -58 127 -55 3 2 -11 24 -30 47
l-36 43 97 -47 c53 -26 100 -47 106 -48 5 0 -16 26 -48 58 -31 32 -57 61 -57
64 0 4 37 -9 82 -28 78 -33 218 -77 225 -71 1 2 -17 18 -42 35 -45 31 -62 61
-27 47 31 -12 264 -57 269 -52 3 3 -12 15 -34 26 -51 27 -36 26 87 -9 58 -17
112 -30 120 -30 28 1 -155 100 -255 139 -272 106 -622 139 -960 91 -120 -17
-149 -18 -205 -8 l-65 12 100 7 c139 9 257 20 253 24 -2 2 -49 14 -103 25 -55
12 -106 25 -114 30 -8 4 25 10 75 14 121 9 264 27 288 36 17 6 10 11 -35 28
-30 11 -92 30 -137 43 -45 12 -80 24 -78 26 8 8 336 3 430 -7 55 -6 101 -8
103 -6 8 8 -118 88 -201 127 l-81 40 138 -3 c75 -2 137 0 137 3 0 8 -35 24
-150 70 -52 21 -88 38 -79 38 25 1 200 -53 334 -103 65 -25 121 -43 123 -41 7
7 -148 124 -218 165 -39 23 -70 42 -70 44 0 9 149 -21 293 -60 92 -25 172 -44
178 -42 15 5 -36 43 -136 103 -44 26 -69 44 -55 41 153 -38 146 -34 191 -99
43 -61 169 -200 175 -194 2 2 -16 48 -40 103 -54 123 -118 313 -156 464 -35
141 -79 370 -71 370 3 0 20 -22 38 -48 38 -55 181 -212 193 -212 5 0 -5 33
-21 73 -51 123 -169 480 -169 512 0 3 33 -38 74 -92 41 -54 88 -111 105 -127
l31 -30 -44 130 c-39 115 -73 208 -160 437 -14 37 -24 67 -21 67 2 0 18 -21
36 -46 42 -62 180 -227 185 -222 6 6 -96 340 -160 522 -30 88 -54 161 -52 163
2 2 26 -33 54 -76 60 -95 154 -222 159 -217 3 2 -34 119 -81 259 -47 141 -86
259 -86 263 0 3 22 -27 48 -68 44 -67 123 -148 144 -148 5 0 -23 60 -62 133
-38 74 -70 137 -70 141 0 4 27 -16 60 -43 33 -28 69 -55 80 -61 18 -10 19 -8
11 13 -5 13 -30 67 -55 121 -25 55 -46 101 -46 102 0 2 18 -14 40 -36 50 -50
75 -53 65 -8 -4 18 -16 52 -26 76 -23 54 -24 110 -2 134 19 21 27 22 41 5z
m674 -69 c63 -50 167 -152 266 -263 l72 -80 -45 135 c-25 74 -44 139 -42 145
2 5 56 -96 121 -225 118 -236 145 -283 131 -225 -15 65 -54 279 -51 282 1 2
31 -45 66 -104 95 -162 224 -357 227 -346 5 15 -41 195 -85 328 -20 62 -32
109 -25 103 7 -6 47 -63 89 -127 178 -269 189 -284 192 -268 4 22 -34 235 -58
325 -11 40 -20 75 -20 79 0 3 22 -23 48 -58 77 -101 177 -274 257 -444 41 -87
77 -160 80 -163 15 -15 -1 301 -20 413 -5 26 -2 24 19 -15 31 -58 201 -482
216 -540 20 -73 32 -25 34 131 0 76 4 135 7 131 13 -15 88 -191 103 -243 22
-75 26 -195 7 -191 -11 2 -13 -10 -8 -65 l6 -68 -42 83 c-23 45 -45 82 -49 82
-22 0 5 -197 41 -290 l21 -55 -66 73 c-37 40 -68 71 -70 69 -6 -6 41 -145 75
-220 17 -38 31 -72 31 -75 0 -5 -47 48 -92 102 -15 20 -16 18 -6 -34 10 -57
41 -130 104 -240 44 -77 36 -71 -36 30 -151 210 -321 390 -494 524 -111 86
-216 160 -216 151 0 -3 17 -29 38 -58 21 -29 49 -68 62 -87 l25 -35 -25 18
c-95 68 -182 121 -291 177 l-126 64 -17 111 c-65 412 -182 661 -430 913 -50
50 -88 92 -85 92 4 0 31 -19 61 -42z m3953 -124 c9 -41 12 -89 9 -119 -11 -91
-104 -478 -118 -493 -3 -2 -3 33 1 79 5 73 -4 182 -23 301 -4 26 3 19 32 -37
l38 -70 7 40 c5 22 11 118 15 213 4 96 11 169 16 164 4 -4 15 -39 23 -78z
m-206 -404 c38 -102 75 -199 82 -216 11 -29 7 -49 -50 -235 -35 -112 -96 -316
-136 -454 -159 -548 -198 -680 -201 -684 -7 -8 -126 45 -134 60 -27 50 -115
597 -108 671 2 26 14 4 63 -117 56 -141 140 -303 172 -335 13 -13 14 -13 9 5
-3 11 -15 81 -26 155 -26 171 -39 229 -95 419 -25 85 -45 162 -45 170 1 9 22
-38 49 -104 50 -126 118 -266 146 -300 l16 -20 -5 20 c-3 11 -12 62 -21 113
-23 138 -63 329 -81 391 -21 72 -12 75 16 4 33 -84 145 -315 165 -338 l16 -20
-5 20 c-3 11 -15 81 -26 155 -21 140 -50 285 -75 380 -8 30 -13 56 -11 58 2 2
36 -54 76 -125 40 -70 84 -147 97 -171 14 -24 27 -42 29 -39 9 8 -38 225 -82
384 -25 90 -44 169 -41 175 4 13 14 -18 92 -282 42 -145 69 -210 86 -210 19 0
4 223 -31 460 -35 237 -33 217 -20 204 5 -5 41 -93 79 -194z m-4194 122 c-8
-31 -19 -71 -26 -87 l-12 -30 -9 48 c-8 44 -6 51 19 87 15 22 31 40 35 40 3 0
0 -26 -7 -58z m150 -39 c-40 -143 -139 -443 -147 -443 -4 0 -8 16 -8 36 0 19
-5 77 -12 129 l-11 94 80 108 c44 59 87 118 94 131 21 33 23 10 4 -55z m140
-280 c-2 -10 -11 -51 -21 -91 -9 -40 -14 -76 -10 -79 6 -7 99 84 134 132 l22
30 -6 -40 c-11 -65 -72 -311 -110 -443 -20 -68 -34 -125 -31 -128 9 -10 145
147 173 200 16 30 30 53 32 51 2 -1 -20 -121 -48 -265 -28 -144 -49 -264 -47
-267 7 -6 116 119 161 185 l39 57 -6 -125 c-4 -69 -16 -197 -27 -285 -11 -88
-21 -172 -23 -187 -2 -16 0 -28 3 -28 4 0 40 65 81 145 40 79 74 143 75 142 3
-5 -16 -274 -27 -363 l-12 -102 -111 -72 c-75 -50 -142 -105 -208 -171 l-96
-98 -11 62 c-72 395 -202 1347 -201 1467 1 27 16 56 72 130 39 53 68 84 64 70
-41 -160 -76 -303 -81 -335 -6 -40 -6 -40 39 30 39 60 166 354 166 384 0 6 4
11 9 11 5 0 8 -8 6 -17z m2038 -508 c2 -72 -24 -165 -45 -165 -6 0 -7 8 -3 18
4 9 10 80 13 157 5 137 5 139 19 100 8 -22 15 -71 16 -110z m1053 61 c3 -13 4
-37 2 -52 -3 -28 -6 -29 -69 -36 -36 -3 -94 -13 -129 -22 -105 -27 -94 -15 65
73 61 33 113 61 117 61 4 0 10 -11 14 -24z m-2391 -107 c30 -17 55 -33 55 -35
0 -2 -20 -1 -45 3 -28 3 -45 2 -45 -4 0 -22 85 -86 154 -118 39 -18 82 -37 96
-44 l25 -11 -25 4 c-14 3 -45 8 -70 11 l-45 6 29 -16 c16 -10 67 -30 115 -47
79 -27 131 -53 85 -42 -189 43 -238 54 -247 54 -7 0 26 -23 73 -51 103 -62
102 -60 59 -54 -19 3 -2 -4 36 -14 39 -11 88 -27 110 -35 l40 -16 -49 5 c-27
3 -83 16 -125 29 -42 13 -94 27 -116 30 -47 7 106 -48 275 -100 106 -32 111
-34 55 -28 -78 8 -312 7 -326 -2 -6 -3 48 -21 121 -40 145 -36 407 -121 415
-134 3 -4 -21 -2 -52 6 -71 17 -285 30 -339 19 -38 -7 -37 -7 56 -31 99 -25
434 -134 428 -139 -3 -3 -132 18 -188 30 -14 3 25 -21 85 -53 119 -63 255
-141 255 -146 0 -2 -46 14 -102 36 -144 56 -251 85 -380 104 -155 23 -368 15
-533 -20 -66 -14 -123 -26 -127 -26 -4 0 6 28 21 63 91 200 138 420 157 725 4
61 8 112 10 112 3 0 29 -14 59 -31z m2389 3 c2 -4 9 -61 16 -127 13 -143 47
-302 100 -468 22 -67 37 -123 35 -125 -2 -2 -48 3 -102 12 -288 46 -488 24
-783 -85 -59 -21 -111 -39 -116 -39 -30 0 157 105 261 147 l60 24 -75 -6 c-41
-2 -93 -8 -115 -11 -72 -12 -32 4 115 46 80 23 149 45 154 50 8 8 -15 13 -149
28 l-70 7 157 28 c230 41 230 42 108 56 -58 6 -125 15 -150 19 l-45 8 60 23
c33 12 113 37 177 55 65 18 121 35 124 39 4 4 -49 7 -117 8 l-124 1 55 25 c30
14 120 47 200 74 l145 48 -65 1 c-66 0 -218 -16 -255 -27 -47 -13 5 15 180 97
103 49 190 91 193 94 8 8 20 7 26 -2z m-50 -1043 c33 -17 124 -72 201 -123 77
-50 162 -104 188 -120 l48 -28 -15 30 c-22 43 -91 129 -160 200 -33 34 -57 62
-53 62 18 0 267 -146 267 -157 0 -7 -24 -99 -54 -205 -29 -106 -68 -251 -86
-323 -18 -71 -36 -134 -40 -138 -4 -4 -27 23 -51 60 -54 84 -184 216 -266 271
-157 106 -382 193 -678 263 l-80 19 113 -6 c61 -3 112 -2 112 1 0 3 -29 20
-65 36 -36 17 -65 32 -65 34 0 5 212 -47 328 -80 61 -18 112 -32 112 -30 0 8
-109 76 -188 116 -52 27 -90 49 -85 49 16 0 235 -73 359 -120 59 -22 109 -39
110 -37 5 5 -210 177 -264 212 -23 15 -41 30 -38 32 2 2 53 -19 113 -47 160
-77 476 -220 479 -217 3 3 -135 124 -249 220 -38 31 -66 57 -62 57 4 0 35 -14
69 -31z m-2265 -96 c-36 -42 -109 -151 -109 -165 0 -4 17 3 38 16 67 42 175
93 265 125 l88 31 -44 -58 c-41 -55 -107 -157 -107 -167 0 -3 37 15 83 39 78
43 223 97 297 111 l35 7 -63 -57 c-35 -32 -61 -59 -60 -61 2 -2 45 10 95 26
50 16 111 33 135 36 39 7 42 6 29 -9 -12 -16 -9 -16 33 -11 39 6 46 4 41 -9
-4 -10 -26 -17 -63 -22 -141 -17 -261 -56 -410 -135 -139 -73 -243 -151 -367
-275 -218 -218 -351 -458 -383 -695 -17 -117 -25 -307 -13 -295 5 6 27 51 49
100 59 136 183 374 177 340 -12 -67 -24 -182 -24 -220 0 -37 1 -38 11 -15 19
45 212 429 215 426 1 -1 -4 -44 -12 -96 -26 -168 -25 -169 66 -29 45 68 99
156 120 194 21 39 39 66 39 60 0 -5 -7 -64 -15 -130 -8 -65 -15 -124 -15 -130
0 -24 151 222 182 296 l33 82 3 -149 3 -149 70 160 c94 217 90 209 83 150 -3
-27 -7 -65 -10 -83 -4 -23 -2 -32 5 -27 6 3 11 11 11 16 0 6 22 45 49 87 27
42 55 98 62 125 10 40 13 45 23 31 11 -14 20 -6 70 55 55 68 87 96 52 49 -75
-106 -155 -256 -185 -348 -81 -246 -20 -656 149 -1005 52 -107 119 -225 120
-212 0 5 -13 45 -29 90 -43 122 -93 316 -75 292 8 -11 51 -71 95 -132 44 -62
82 -113 83 -113 2 0 -20 53 -49 118 -49 109 -125 308 -125 328 0 5 34 -43 76
-106 41 -63 79 -119 83 -123 4 -4 -16 63 -45 150 -56 165 -108 367 -93 357 5
-3 9 -10 9 -15 0 -46 143 -311 179 -334 5 -2 -8 48 -29 113 -20 66 -40 134
-44 152 l-6 34 26 -25 27 -24 -7 30 c-24 95 -76 358 -72 362 2 2 27 -40 56
-94 28 -54 63 -111 76 -128 l26 -30 -6 45 c-4 25 -17 91 -30 148 -12 56 -20
99 -16 95 3 -4 25 -33 47 -63 43 -56 113 -129 113 -117 0 4 -15 44 -34 89 -39
95 -86 241 -86 266 0 9 18 -11 40 -45 22 -35 42 -63 44 -63 3 0 3 69 0 153 -3
103 -1 145 5 130 33 -73 64 -351 76 -678 19 -503 -72 -1524 -210 -2361 -71
-432 -210 -1128 -234 -1172 -16 -30 -372 621 -552 1008 -224 484 -401 962
-555 1493 -133 463 -301 1191 -394 1712 l-39 220 27 28 c15 16 49 48 77 70
l50 42 -40 -55 c-21 -30 -52 -72 -68 -92 -33 -43 -27 -47 23 -17 95 58 302
170 306 166 3 -3 -11 -37 -30 -76 -20 -39 -33 -71 -30 -71 3 0 54 40 113 88
149 123 191 155 191 144 0 -5 -9 -17 -21 -28 -23 -21 -121 -175 -115 -181 2
-3 42 25 87 60 79 61 265 187 276 187 3 0 -10 -17 -28 -37z m876 -148 l40 -13
-67 -1 c-63 -1 -79 5 -61 22 10 10 43 7 88 -8z m350 -306 c48 -100 48 -101 61
-72 12 28 12 27 13 -18 1 -25 4 -75 8 -110 l6 -64 28 60 c19 41 28 53 28 37 1
-29 -25 -205 -45 -305 -9 -43 -14 -81 -11 -83 2 -2 32 35 67 83 56 78 62 84
56 53 -4 -19 -9 -53 -12 -75 l-5 -40 20 40 21 40 -6 -70 c-4 -38 -15 -112 -25
-164 -10 -51 -19 -98 -19 -104 0 -6 18 13 40 42 21 30 42 56 46 60 9 9 -4 -46
-46 -196 -20 -73 -36 -133 -34 -133 5 0 71 114 109 188 21 40 39 71 42 69 12
-13 -57 -243 -132 -442 -17 -45 26 12 90 120 36 60 65 105 65 100 -1 -28 -63
-284 -93 -382 -18 -62 -30 -110 -26 -108 12 8 96 157 133 235 168 366 208 806
94 1035 -11 22 -44 69 -72 105 -29 36 -61 78 -72 95 l-19 30 32 -23 c18 -13
60 -60 94 -105 l61 -82 -4 42 c-2 23 -1 40 3 38 21 -14 128 -209 153 -279 4
-10 9 -17 11 -14 7 7 -23 175 -40 227 -8 25 -14 46 -12 47 1 1 54 -81 117
-182 63 -102 116 -178 118 -170 5 22 -26 167 -49 234 -11 31 -15 52 -10 47 5
-6 70 -102 145 -215 75 -113 136 -200 136 -194 0 6 -14 66 -30 134 -17 67 -29
125 -26 127 2 2 30 -44 62 -104 81 -153 117 -212 110 -183 -38 153 -47 194
-44 206 2 8 27 -21 56 -65 41 -63 52 -88 52 -120 0 -43 -24 -212 -40 -284 -14
-66 -155 -867 -199 -1132 -124 -753 -188 -1370 -206 -1995 -3 -107 -8 -214
-11 -237 l-5 -41 -50 95 c-48 91 -127 223 -134 223 -2 0 5 -30 16 -67 20 -69
93 -348 103 -393 4 -18 -37 17 -150 128 -146 144 -192 181 -147 115 62 -88
181 -327 197 -395 12 -54 -31 -35 -175 76 -67 51 -181 109 -285 144 -66 23
-248 62 -284 62 -21 0 -22 3 -17 43 4 23 27 182 51 352 141 975 194 1752 183
2705 -7 636 -25 811 -120 1167 -24 90 -39 159 -32 153 6 -5 33 -55 60 -111z
m2005 23 c0 -5 -38 -19 -85 -31 -47 -13 -88 -28 -92 -34 -4 -6 2 -8 18 -4 13
4 66 10 118 13 109 8 111 3 18 -51 -34 -20 -51 -34 -37 -31 14 4 66 17 115 30
50 13 117 27 150 31 l60 6 -52 -29 c-72 -41 -195 -124 -190 -128 2 -2 83 21
179 51 97 30 179 55 183 55 4 0 -14 -15 -41 -32 -55 -38 -65 -55 -33 -60 19
-2 11 -12 -54 -62 -42 -32 -77 -60 -77 -62 0 -4 106 41 242 102 103 46 218 88
224 81 3 -2 -22 -20 -53 -40 -71 -44 -199 -150 -187 -154 5 -1 81 15 169 36
88 22 161 38 162 37 2 -1 -31 -24 -72 -50 -41 -26 -77 -52 -81 -58 -8 -12 124
-1 203 17 29 7 53 11 53 10 0 -1 -20 -15 -45 -31 -51 -32 -55 -41 -22 -47 36
-7 -52 2 -123 13 -93 14 -249 12 -367 -5 -203 -29 -370 -83 -587 -192 -70 -35
-130 -62 -132 -60 -14 14 70 400 142 654 6 20 14 23 83 26 165 7 211 7 211 -1z
m125 -668 c-16 -13 -73 -56 -125 -94 -52 -38 -104 -76 -115 -84 -33 -26 108
25 254 92 l132 60 -47 -56 c-86 -103 -84 -99 -49 -78 17 10 45 30 63 43 36 27
39 25 17 -17 -19 -37 -7 -39 26 -4 13 14 42 40 64 57 l39 32 -32 -47 c-18 -27
-29 -48 -25 -48 4 0 46 31 93 69 47 38 87 67 88 66 2 -2 -17 -36 -42 -75 -25
-39 -46 -73 -46 -75 0 -3 48 25 107 61 59 36 118 73 132 82 14 8 0 -11 -31
-44 -32 -33 -58 -63 -58 -66 0 -8 74 17 170 57 74 31 155 55 185 54 11 0 -9
-11 -45 -23 -228 -81 -380 -192 -497 -366 -185 -276 -245 -578 -187 -935 9
-49 19 -93 23 -97 4 -5 12 25 19 65 30 177 72 338 72 274 0 -19 40 -130 46
-125 2 2 -1 42 -5 88 -5 47 -6 103 -2 125 l7 40 7 -35 c8 -38 46 -140 57 -153
4 -4 10 71 14 169 4 97 9 196 13 220 6 45 6 44 33 -64 16 -60 34 -120 41 -133
13 -23 14 -21 16 26 5 108 26 276 33 268 4 -4 15 -41 25 -81 10 -41 21 -70 26
-65 5 5 22 67 39 138 17 72 34 141 38 155 3 15 9 -18 12 -77 3 -57 9 -105 12
-109 8 -7 50 131 69 221 19 91 25 94 33 14 10 -115 12 -113 77 56 11 29 12 29
18 7 3 -13 10 -23 15 -24 10 0 97 137 117 184 11 26 49 36 49 13 0 -55 -209
-392 -479 -770 -286 -403 -557 -823 -748 -1160 -201 -357 -297 -555 -455 -945
l-99 -245 5 345 c12 752 78 1819 151 2432 22 185 54 411 59 415 2 3 55 -52
117 -121 62 -69 114 -124 116 -122 2 2 -10 28 -28 57 -41 70 -129 244 -129
256 0 10 89 43 195 72 l70 19 -30 -24 c-16 -13 -53 -41 -82 -62 -29 -20 -52
-40 -53 -43 0 -8 117 35 300 109 69 28 130 51 135 51 6 0 -3 -11 -20 -25z"/>
</g>
</svg>
